<svg width="132" height="127" viewBox="0 0 132 127" fill="none" xmlns="http://www.w3.org/2000/svg">
<path d="M42.7969 82.1045H112.665C114.395 82.1045 115.913 81.0038 116.381 79.405L131.851 27.3142C132.183 26.1912 131.956 24.9849 131.224 24.0518C130.49 23.1217 129.35 22.5723 128.134 22.5723H33.8691L31.1047 10.604C30.7119 8.89965 29.1409 7.68945 27.3281 7.68945H3.86719C1.73016 7.68945 0 9.35408 0 11.4102C0 13.4672 1.73016 15.1309 3.86719 15.1309H24.2243L38.1895 75.5923C34.0806 77.3112 31.1953 81.246 31.1953 85.8252C31.1953 91.9799 36.3999 96.9873 42.7969 96.9873H112.665C114.803 96.9873 116.532 95.3236 116.532 93.2666C116.532 91.2105 114.803 89.5459 112.665 89.5459H42.7969C40.6669 89.5459 38.9297 87.8784 38.9297 85.8252C38.9297 83.772 40.6669 82.1045 42.7969 82.1045V82.1045Z" fill="#E4E4E4"/>
<path d="M38.9292 108.149C38.9292 114.305 43.9518 119.311 50.1261 119.311C56.2994 119.311 61.3221 114.305 61.3221 108.149C61.3221 101.994 56.2994 96.9868 50.1261 96.9868C43.9518 96.9868 38.9292 101.994 38.9292 108.149Z" fill="#E4E4E4"/>
<path d="M93.3286 108.149C93.3286 114.305 98.3515 119.311 104.525 119.311C110.7 119.311 115.721 114.305 115.721 108.149C115.721 101.994 110.7 96.9868 104.525 96.9868C98.3515 96.9868 93.3286 101.994 93.3286 108.149Z" fill="#E4E4E4"/>
</svg>
