<svg width="127" height="36" viewBox="0 0 127 36" fill="none" xmlns="http://www.w3.org/2000/svg">
<path d="M22.8662 25.81C22.8662 28.9674 21.7225 31.4552 19.4351 33.2731C17.1637 35.091 13.9965 36 9.9335 36C6.19044 36 2.87927 35.2983 0 33.895V27.006C2.3674 28.0585 4.3669 28.8 5.99849 29.2306C7.64607 29.6611 9.14969 29.8764 10.5094 29.8764C12.1409 29.8764 13.3886 29.5654 14.2524 28.9435C15.1322 28.3216 15.5721 27.3967 15.5721 26.1688C15.5721 25.4831 15.3801 24.8771 14.9962 24.3508C14.6123 23.8086 14.0445 23.2904 13.2927 22.796C12.5568 22.3017 11.0452 21.5123 8.75779 20.4279C6.61433 19.4233 5.00674 18.4585 3.93501 17.5336C2.86328 16.6086 2.00749 15.5322 1.36766 14.3043C0.727817 13.0764 0.407897 11.6412 0.407897 9.99867C0.407897 6.90498 1.45563 4.47309 3.55111 2.70299C5.66257 0.93289 8.57384 0.0478405 12.2849 0.0478405C14.1084 0.0478405 15.844 0.263123 17.4916 0.693688C19.1552 1.12425 20.8907 1.73023 22.6983 2.51163L20.2989 8.27641C18.4274 7.51096 16.8757 6.97674 15.6441 6.67375C14.4284 6.37076 13.2287 6.21927 12.045 6.21927C10.6373 6.21927 9.55759 6.54618 8.80578 7.2C8.05397 7.85382 7.67807 8.70698 7.67807 9.75947C7.67807 10.4133 7.83003 10.9874 8.13395 11.4817C8.43787 11.9601 8.91775 12.4306 9.57359 12.893C10.2454 13.3395 11.821 14.1528 14.3004 15.3329C17.5796 16.8957 19.827 18.4664 21.0427 20.0452C22.2584 21.608 22.8662 23.5296 22.8662 25.81Z" fill="#2B2A29"/>
<path d="M49.4275 35.5216H29.2246V0.550166H49.4275V6.62591H36.6628V14.3043H48.5398V20.3801H36.6628V29.398H49.4275V35.5216Z" fill="#2B2A29"/>
<path d="M88.6097 17.988C88.6097 23.7767 87.17 28.2259 84.2908 31.3355C81.4115 34.4452 77.2845 36 71.9099 36C66.5352 36 62.4083 34.4452 59.529 31.3355C56.6497 28.2259 55.2101 23.7608 55.2101 17.9402C55.2101 12.1196 56.6497 7.67841 59.529 4.61661C62.4243 1.53887 66.5672 0 71.9579 0C77.3485 0 81.4675 1.54684 84.3148 4.64053C87.178 7.73422 88.6097 12.1834 88.6097 17.988ZM63.0081 17.988C63.0081 21.895 63.7519 24.8372 65.2396 26.8146C66.7272 28.792 68.9506 29.7807 71.9099 29.7807C77.8444 29.7807 80.8116 25.8498 80.8116 17.988C80.8116 10.1103 77.8604 6.17143 71.9579 6.17143C68.9986 6.17143 66.7672 7.16811 65.2636 9.16146C63.7599 11.1389 63.0081 14.0811 63.0081 17.988Z" fill="#2B2A29"/>
<path d="M127 35.5216H117.546L102.286 9.06578H102.07C102.374 13.7382 102.526 17.0711 102.526 19.0645V35.5216H95.8798V0.550166H105.261L120.498 26.7429H120.666C120.426 22.198 120.306 18.9847 120.306 17.103V0.550166H127V35.5216Z" fill="#2B2A29"/>
</svg>
