<svg width="109" height="20" viewBox="0 0 109 20" fill="none" xmlns="http://www.w3.org/2000/svg">
<path d="M14.7395 3.92265V0.331491H0V19.6685H4.51381V12.6243H13.5414V9.03315H4.51381V3.92265H14.7395Z" fill="white"/>
<path d="M31.5514 19.6685H36.2881L27.567 0.331491H23.1089L14.4156 19.6685H19.0409L20.7684 15.5249H29.8239L31.5514 19.6685ZM22.2173 12.1271L25.3101 4.72376L28.4029 12.1271H22.2173Z" fill="white"/>
<path d="M44.7202 20C50.2928 20 52.9955 17.2376 52.9955 14.0055C52.9955 6.90608 41.6552 9.36464 41.6552 5.80111C41.6552 4.58564 42.6862 3.59116 45.361 3.59116C47.0885 3.59116 48.9554 4.0884 50.7665 5.1105L52.1596 1.71271C50.3485 0.58011 47.8408 0 45.3889 0C39.8442 0 37.1693 2.73481 37.1693 6.0221C37.1693 13.2044 48.5096 10.7182 48.5096 14.337C48.5096 15.5249 47.4229 16.4088 44.748 16.4088C42.4075 16.4088 39.9556 15.5801 38.3117 14.3923L36.7792 17.7624C38.5067 19.0884 41.6274 20 44.7202 20Z" fill="white"/>
<path d="M59.8479 19.6685H64.3617V3.9779H70.603V0.331491H53.6065V3.9779H59.8479V19.6685Z" fill="white"/>
<path d="M77.5176 16.0774V11.6022H86.5731V8.12155H77.5176V3.92265H87.7712V0.331491H73.0316V19.6685H88.1334V16.0774H77.5176Z" fill="white"/>
<path d="M109 19.6685L104.625 13.453C107.161 12.3757 108.638 10.2486 108.638 7.34807C108.638 3.01105 105.378 0.331491 100.167 0.331491H91.7249V19.6685H96.2387V14.2818H100.39L104.152 19.6685H109ZM104.068 7.34807C104.068 9.44751 102.675 10.7182 99.9167 10.7182H96.2387V3.9779H99.9167C102.675 3.9779 104.068 5.22099 104.068 7.34807Z" fill="white"/>
</svg>
