<svg width="76" height="76" viewBox="0 0 76 76" fill="none" xmlns="http://www.w3.org/2000/svg">
<path d="M39.572 31.7999C39.2817 31.8088 39.0025 31.9294 38.797 32.1394L32.9055 38.013L29.2763 34.395C28.2602 33.3364 26.6187 34.9712 27.6795 35.9852L32.1082 40.4027C32.5482 40.8427 33.2628 40.8427 33.705 40.4027L40.3939 33.7317C41.1309 33.0171 40.5882 31.7999 39.5742 31.7999H39.572ZM6.11667 40.7332H12.8167C13.4353 40.7332 13.9333 41.2313 13.9333 41.8499C13.9333 42.4685 13.4353 42.9666 12.8167 42.9666H6.11667C5.49803 42.9666 5 42.4685 5 41.8499C5 41.2313 5.49803 40.7332 6.11667 40.7332ZM6.11667 31.7999H12.8167C13.4353 31.7999 13.9333 32.2979 13.9333 32.9166C13.9333 33.5352 13.4353 34.0332 12.8167 34.0332H6.11667C5.49803 34.0332 5 33.5352 5 32.9166C5 32.2979 5.49803 31.7999 6.11667 31.7999ZM6.11667 22.8666H12.8167C13.4353 22.8666 13.9333 23.3646 13.9333 23.9832C13.9333 24.6019 13.4353 25.0999 12.8167 25.0999H6.11667C5.49803 25.0999 5 24.6019 5 23.9832C5 23.3646 5.49803 22.8666 6.11667 22.8666ZM59.7167 47.4332C56.6458 47.4332 54.1333 49.9457 54.1333 53.0166C54.1333 56.0874 56.6458 58.5999 59.7167 58.5999C62.7875 58.5999 65.3 56.0874 65.3 53.0166C65.3 49.9457 62.7875 47.4332 59.7167 47.4332ZM59.7167 49.6666C61.5793 49.6666 63.0667 51.154 63.0667 53.0166C63.0667 54.8792 61.5793 56.3666 59.7167 56.3666C57.8541 56.3666 56.3667 54.8792 56.3667 53.0166C56.3667 51.154 57.8541 49.6666 59.7167 49.6666ZM30.6833 47.4332C27.6125 47.4332 25.1 49.9457 25.1 53.0166C25.1 56.0874 27.6125 58.5999 30.6833 58.5999C33.7542 58.5999 36.2667 56.0874 36.2667 53.0166C36.2667 49.9457 33.7542 47.4332 30.6833 47.4332ZM30.6833 49.6666C32.5459 49.6666 34.0333 51.154 34.0333 53.0166C34.0333 54.8792 32.5459 56.3666 30.6833 56.3666C28.8207 56.3666 27.3333 54.8792 27.3333 53.0166C27.3333 51.154 28.8207 49.6666 30.6833 49.6666ZM19.5167 18.3999C17.6809 18.3999 16.1667 19.9141 16.1667 21.7499V46.3166C16.1667 48.1524 17.6809 49.6666 19.5167 49.6666H23.9833C25.4931 49.6889 25.4931 47.4109 23.9833 47.4332H19.5167C18.8779 47.4332 18.4 46.9553 18.4 46.3166V21.7499C18.4 21.1112 18.8779 20.6332 19.5167 20.6332H48.55C49.1887 20.6332 49.6667 21.1112 49.6667 21.7499V47.4332H37.3833C35.9093 47.4332 35.9361 49.6889 37.3833 49.6666H53.0167C54.4907 49.6666 54.4773 47.4332 53.0167 47.4332H51.9V27.3332H61.3403L69.7667 40.501V46.3166C69.7667 46.9553 69.2887 47.4332 68.65 47.4332H66.4167C64.9561 47.4332 64.9561 49.6666 66.4167 49.6666H68.65C70.4858 49.6666 72 48.1524 72 46.3166V40.1749C72 39.9627 71.9397 39.7506 71.8258 39.5719L62.8925 25.6136C62.687 25.2942 62.3341 25.0999 61.95 25.0999H51.9V21.7499C51.9 19.9141 50.3858 18.3999 48.55 18.3999H19.5167Z" fill="#0D2DFF"/>
</svg>
