<svg width="76" height="76" viewBox="0 0 76 76" fill="none" xmlns="http://www.w3.org/2000/svg">
<path d="M38.572 31.7999C38.2817 31.8088 38.0025 31.9294 37.797 32.1394L31.9055 38.013L28.2763 34.395C27.2602 33.3364 25.6187 34.9712 26.6795 35.9852L31.1082 40.4027C31.5482 40.8427 32.2628 40.8427 32.705 40.4027L39.3939 33.7317C40.1309 33.0171 39.5882 31.7999 38.5742 31.7999H38.572ZM5.11667 40.7332H11.8167C12.4353 40.7332 12.9333 41.2313 12.9333 41.8499C12.9333 42.4685 12.4353 42.9666 11.8167 42.9666H5.11667C4.49803 42.9666 4 42.4685 4 41.8499C4 41.2313 4.49803 40.7332 5.11667 40.7332ZM5.11667 31.7999H11.8167C12.4353 31.7999 12.9333 32.2979 12.9333 32.9166C12.9333 33.5352 12.4353 34.0332 11.8167 34.0332H5.11667C4.49803 34.0332 4 33.5352 4 32.9166C4 32.2979 4.49803 31.7999 5.11667 31.7999ZM5.11667 22.8666H11.8167C12.4353 22.8666 12.9333 23.3646 12.9333 23.9832C12.9333 24.6019 12.4353 25.0999 11.8167 25.0999H5.11667C4.49803 25.0999 4 24.6019 4 23.9832C4 23.3646 4.49803 22.8666 5.11667 22.8666ZM58.7167 47.4332C55.6458 47.4332 53.1333 49.9457 53.1333 53.0166C53.1333 56.0874 55.6458 58.5999 58.7167 58.5999C61.7875 58.5999 64.3 56.0874 64.3 53.0166C64.3 49.9457 61.7875 47.4332 58.7167 47.4332ZM58.7167 49.6666C60.5793 49.6666 62.0667 51.154 62.0667 53.0166C62.0667 54.8792 60.5793 56.3666 58.7167 56.3666C56.8541 56.3666 55.3667 54.8792 55.3667 53.0166C55.3667 51.154 56.8541 49.6666 58.7167 49.6666ZM29.6833 47.4332C26.6125 47.4332 24.1 49.9457 24.1 53.0166C24.1 56.0874 26.6125 58.5999 29.6833 58.5999C32.7542 58.5999 35.2667 56.0874 35.2667 53.0166C35.2667 49.9457 32.7542 47.4332 29.6833 47.4332ZM29.6833 49.6666C31.5459 49.6666 33.0333 51.154 33.0333 53.0166C33.0333 54.8792 31.5459 56.3666 29.6833 56.3666C27.8207 56.3666 26.3333 54.8792 26.3333 53.0166C26.3333 51.154 27.8207 49.6666 29.6833 49.6666ZM18.5167 18.3999C16.6809 18.3999 15.1667 19.9141 15.1667 21.7499V46.3166C15.1667 48.1524 16.6809 49.6666 18.5167 49.6666H22.9833C24.4931 49.6889 24.4931 47.4109 22.9833 47.4332H18.5167C17.8779 47.4332 17.4 46.9553 17.4 46.3166V21.7499C17.4 21.1112 17.8779 20.6332 18.5167 20.6332H47.55C48.1887 20.6332 48.6667 21.1112 48.6667 21.7499V47.4332H36.3833C34.9093 47.4332 34.9361 49.6889 36.3833 49.6666H52.0167C53.4907 49.6666 53.4773 47.4332 52.0167 47.4332H50.9V27.3332H60.3403L68.7667 40.501V46.3166C68.7667 46.9553 68.2887 47.4332 67.65 47.4332H65.4167C63.9561 47.4332 63.9561 49.6666 65.4167 49.6666H67.65C69.4858 49.6666 71 48.1524 71 46.3166V40.1749C71 39.9627 70.9397 39.7506 70.8258 39.5719L61.8925 25.6136C61.687 25.2942 61.3341 25.0999 60.95 25.0999H50.9V21.7499C50.9 19.9141 49.3858 18.3999 47.55 18.3999H18.5167Z" fill="#0D2DFF"/>
</svg>
