<svg width="76" height="76" viewBox="0 0 76 76" fill="none" xmlns="http://www.w3.org/2000/svg">
<path d="M38.4982 30.4976H17.8749C17.43 30.4976 17.0693 30.8583 17.0693 31.3031C17.0693 31.7481 17.43 32.1087 17.8749 32.1087H38.4983C38.9432 32.1087 39.3038 31.7479 39.3038 31.3031C39.3038 30.8583 38.9432 30.4976 38.4982 30.4976Z" fill="#0D2DFF"/>
<path d="M38.4982 36.1582H17.8749C17.43 36.1582 17.0693 36.5189 17.0693 36.9638C17.0693 37.4086 17.43 37.7693 17.8749 37.7693H38.4983C38.9432 37.7693 39.3038 37.4086 39.3038 36.9638C39.3038 36.5189 38.9432 36.1582 38.4982 36.1582Z" fill="#0D2DFF"/>
<path d="M38.4982 41.8188H17.8749C17.43 41.8188 17.0693 42.1796 17.0693 42.6244C17.0693 43.0692 17.43 43.43 17.8749 43.43H38.4983C38.9432 43.43 39.3038 43.0692 39.3038 42.6244C39.3038 42.1796 38.9432 41.8188 38.4982 41.8188Z" fill="#0D2DFF"/>
<path d="M39.3038 48.2855C39.3038 47.8406 38.9432 47.48 38.4983 47.48H17.8749C17.43 47.48 17.0693 47.8407 17.0693 48.2855C17.0693 48.7304 17.43 49.0911 17.8749 49.0911H38.4983C38.9432 49.0911 39.3038 48.7305 39.3038 48.2855Z" fill="#0D2DFF"/>
<path d="M17.8749 55.7759C17.43 55.7759 17.0693 56.1366 17.0693 56.5814C17.0693 57.0263 17.43 57.387 17.8749 57.387H28.213C28.6579 57.387 29.0185 57.0263 29.0185 56.5814C29.0185 56.1366 28.6579 55.7759 28.213 55.7759H17.8749Z" fill="#0D2DFF"/>
<path d="M53.8048 60.1236C53.3599 60.1236 52.9993 60.4843 52.9993 60.9292V62.014C52.9993 63.3234 51.934 64.3888 50.6244 64.3888H14.9859C13.6765 64.3888 12.6111 63.3235 12.6111 62.014V23.2921C12.6111 23.1177 12.6315 22.9467 12.6679 22.7803H20.003C21.5344 22.7803 22.7803 21.5344 22.7803 20.003V12.668C22.9467 12.6316 23.1176 12.6112 23.292 12.6112H50.6243C51.9337 12.6112 52.9992 13.6765 52.9992 14.986V25.7112C52.9992 26.1562 53.3598 26.5168 53.8047 26.5168C54.2497 26.5168 54.6103 26.156 54.6103 25.7112V14.9859C54.6104 12.7881 52.8222 11 50.6244 11H23.2921C22.2274 11 21.2263 11.4146 20.4735 12.1675L12.1674 20.4736C11.4145 21.2265 11 22.2274 11 23.2922V62.0141C11 64.212 12.788 66 14.9859 66H50.6244C52.8222 66 54.6104 64.2119 54.6104 62.0141V60.9293C54.6104 60.4843 54.2498 60.1236 53.8048 60.1236ZM21.1692 13.7504V20.003C21.1692 20.6461 20.6461 21.1692 20.003 21.1692H13.7504L21.1692 13.7504Z" fill="#0D2DFF"/>
<path d="M64.8385 39.7892C65.404 38.9591 65.5503 37.9353 65.24 36.9801C64.9296 36.0249 64.2094 35.2826 63.2641 34.9436C62.6369 34.7187 62.2185 34.1429 62.1985 33.4769C62.1681 32.473 61.6846 31.5586 60.872 30.9682C60.0596 30.3779 59.0403 30.2008 58.0765 30.482C57.4365 30.6687 56.7601 30.4487 56.3523 29.9218C55.7378 29.1275 54.8092 28.6719 53.8048 28.6719C52.8005 28.6719 51.8719 29.1275 51.2572 29.9218C50.8494 30.4488 50.1726 30.6685 49.5331 30.482C48.5692 30.2006 47.5501 30.3779 46.7374 30.9682C45.9249 31.5586 45.4416 32.4729 45.4111 33.4767C45.391 34.1428 44.9727 34.7184 44.3455 34.9435C43.4001 35.2825 42.6799 36.0249 42.3696 36.98C42.0593 37.9352 42.2056 38.9591 42.7711 39.7891C43.1462 40.3398 43.1462 41.0514 42.7711 41.602C42.2056 42.4321 42.0593 43.4559 42.3696 44.4111C42.6799 45.3663 43.4001 46.1086 44.3455 46.4477C44.9727 46.6728 45.3911 47.2484 45.4111 47.9145C45.4391 48.8379 45.8623 49.7055 46.5723 50.2947C47.0408 50.6836 47.6036 50.9269 48.1926 51.0082V58.3428C48.1926 58.9616 48.5282 59.5336 49.0685 59.8354C49.6081 60.1369 50.2714 60.1235 50.7987 59.7988L53.7534 57.9799C53.8015 57.9501 53.8302 57.9636 53.8567 57.9799L56.8111 59.7988C57.3382 60.1232 58.0014 60.1371 58.5415 59.8353C59.0818 59.5334 59.4174 58.9614 59.4174 58.3427V51.008C60.0062 50.9268 60.5689 50.6835 61.0374 50.2947C61.7476 49.7055 62.1708 48.838 62.1989 47.9144C62.2188 47.2483 62.6372 46.6726 63.2644 46.4476C64.2098 46.1086 64.9301 45.3662 65.2403 44.411C65.5506 43.4558 65.4043 42.432 64.8389 41.6019C64.4633 41.0515 64.4633 40.3399 64.8385 39.7892ZM57.6556 58.4268L54.701 56.6079C54.1518 56.2698 53.4583 56.2693 52.9085 56.6079L49.954 58.4267C49.8867 58.4676 49.8037 58.4204 49.8037 58.3427V50.8552C50.3575 50.7911 50.9067 51.0165 51.2572 51.4695C51.872 52.2638 52.8005 52.7193 53.8049 52.7193C54.8092 52.7193 55.7378 52.2638 56.3523 51.4695C56.7029 51.0164 57.2522 50.7911 57.806 50.8552V58.3427C57.806 58.421 57.7218 58.4677 57.6556 58.4268ZM63.507 42.5094C63.7898 42.9243 63.8628 43.4359 63.7077 43.9133C63.5526 44.3907 63.1926 44.7617 62.7201 44.9312C61.4652 45.3813 60.6284 46.5332 60.5881 47.8658C60.5738 48.3343 60.3679 48.7565 60.0083 49.055C59.6041 49.3904 59.0567 49.517 58.5279 49.3627C57.2482 48.9893 55.8939 49.4293 55.078 50.4836C54.7709 50.8805 54.3067 51.1082 53.8047 51.1082C53.3028 51.1082 52.8387 50.8806 52.5313 50.4836C51.9084 49.6783 50.9716 49.2315 49.9937 49.2315C49.691 49.2315 49.3842 49.2743 49.0817 49.3626C48.5478 49.5182 48.002 49.3878 47.601 49.0549C47.2414 48.7564 47.0355 48.3342 47.0214 47.8658C46.9811 46.5332 46.1442 45.3813 44.8892 44.9311C44.4168 44.7616 44.0569 44.3907 43.9017 43.9133C43.7466 43.4359 43.8196 42.9242 44.1024 42.5093C44.8529 41.4075 44.8529 39.9838 44.1024 38.882C43.8196 38.4671 43.7466 37.9554 43.9017 37.4779C44.0568 37.0005 44.4168 36.6295 44.8892 36.4601C46.1442 36.0099 46.9811 34.858 47.0214 33.5254C47.0366 33.0236 47.2781 32.5667 47.6842 32.2717C48.0902 31.9766 48.5994 31.8881 49.0816 32.0286C50.361 32.4021 51.7156 31.962 52.5313 30.9078C52.8385 30.5107 53.3026 30.283 53.8047 30.283C54.3067 30.283 54.7707 30.5106 55.078 30.9076C55.8938 31.962 57.2478 32.402 58.5278 32.0286C59.0097 31.8879 59.5189 31.9765 59.9251 32.2716C60.3312 32.5666 60.5729 33.0236 60.588 33.5253C60.6284 34.8579 61.4652 36.0099 62.7201 36.46C63.1926 36.6294 63.5525 37.0004 63.7077 37.4778C63.8628 37.9552 63.7898 38.467 63.507 38.8818C62.7563 39.9837 62.7563 41.4076 63.507 42.5094Z" fill="#0D2DFF"/>
<path d="M53.8046 33.9434C50.0816 33.9434 47.0527 36.9722 47.0527 40.6953C47.0527 44.4183 50.0816 47.4471 53.8046 47.4471C57.5275 47.4471 60.5564 44.4183 60.5564 40.6953C60.5564 36.9722 57.5275 33.9434 53.8046 33.9434ZM53.8046 45.836C50.97 45.836 48.6638 43.5299 48.6638 40.6954C48.6638 37.8608 50.97 35.5546 53.8046 35.5546C56.6393 35.5546 58.9453 37.8607 58.9453 40.6954C58.9453 43.53 56.6392 45.836 53.8046 45.836Z" fill="#0D2DFF"/>
</svg>
