<svg width="76" height="76" viewBox="0 0 76 76" fill="none" xmlns="http://www.w3.org/2000/svg">
<path d="M64.5231 21.6596L38.3669 9.08354C38.135 8.97215 37.865 8.97215 37.6332 9.08354L11.477 21.6596C11.1853 21.7998 11 22.094 11 22.4165V52.9585C11 53.281 11.1853 53.5751 11.477 53.7153L37.6331 66.2914C37.749 66.3471 37.8745 66.375 38 66.375C38.1255 66.375 38.2509 66.3471 38.3669 66.2914L64.5231 53.7153C64.8147 53.5751 65 53.281 65 52.9585V22.4166C65 22.0939 64.8146 21.7999 64.5231 21.6596ZM38 10.7737L62.2151 22.4165L55.1957 25.7915C55.1512 25.7578 55.1043 25.7266 55.0528 25.7019L31.0021 14.1384L38 10.7737ZM29.0964 15.0886L53.2763 26.7145L48.3239 29.0956L24.154 17.4745L29.0964 15.0886ZM53.842 28.3089V37.1108L49.2162 39.3349V30.533L53.842 28.3089ZM63.3123 52.4311L38.8439 64.1954V35.5201L44.6804 32.7138C45.1 32.512 45.276 32.0097 45.0734 31.5916C44.8707 31.1737 44.3663 30.9982 43.9465 31.2001L38 34.0593L35.6601 32.9343C35.2403 32.7322 34.7359 32.9077 34.5333 33.3257C34.3307 33.7437 34.5066 34.2462 34.9263 34.448L37.1561 35.5201V64.1954L12.6877 52.4309V23.7555L31.3202 32.7142C31.4385 32.7711 31.5635 32.798 31.6864 32.798C32.0001 32.798 32.3015 32.623 32.4469 32.3227C32.6496 31.9048 32.4736 31.4023 32.0539 31.2005L13.7849 22.4165L22.1678 18.3859L47.5167 30.5739C47.5205 30.5791 47.5246 30.5837 47.5284 30.5887V40.6741C47.5284 40.9633 47.6778 41.2321 47.9237 41.386C48.0603 41.4714 48.2161 41.5145 48.3724 41.5145C48.4975 41.5145 48.623 41.4868 48.7392 41.4309L55.0528 38.3953C55.3444 38.2551 55.5297 37.9611 55.5297 37.6384V27.4975L63.3123 23.7556V52.4311Z" fill="#0D2DFF"/>
</svg>
