<svg width="76" height="76" viewBox="0 0 76 76" fill="none" xmlns="http://www.w3.org/2000/svg">
<path d="M37.069 60.7553V58.8777C37.069 58.3144 37.4414 57.9389 38 57.9389C38.5586 57.9389 38.931 58.3144 38.931 58.8777V60.7553C38.931 61.3185 38.5586 61.694 38 61.694C37.4414 61.694 37.069 61.3185 37.069 60.7553ZM37.069 17.5714V15.6939C37.069 15.1306 37.4414 14.7551 38 14.7551C38.5586 14.7551 38.931 15.1306 38.931 15.6939V17.5714C38.931 18.1347 38.5586 18.5102 38 18.5102C37.4414 18.5102 37.069 18.1347 37.069 17.5714ZM15.6552 37.2858H17.5172C18.0759 37.2858 18.4483 37.6613 18.4483 38.2246C18.4483 38.7878 18.0759 39.1634 17.5172 39.1634H15.6552C15.0966 39.1634 14.7241 38.7878 14.7241 38.2246C14.7241 37.6613 15.0966 37.2858 15.6552 37.2858ZM58.4828 37.2858H60.3448C60.9035 37.2858 61.2759 37.6613 61.2759 38.2246C61.2759 38.7878 60.9035 39.1634 60.3448 39.1634H58.4828C57.9241 39.1634 57.5517 38.7878 57.5517 38.2246C57.5517 37.6613 57.9241 37.2858 58.4828 37.2858ZM38 21.0832C37.4414 21.0832 37 21.5282 37 22.0915L37.069 33.5307C35.2069 34.094 33.3448 35.9715 33.3448 38.2246C33.3448 40.8532 35.2069 42.9185 38 42.9185C40.2345 42.9185 42.0966 41.0409 42.469 39.1634H50.8483C51.4069 39.1634 51.7793 38.7878 51.7793 38.2246C51.7793 37.6613 51.4069 37.2858 50.8483 37.2858H42.6552C42.0966 35.4082 40.7931 34.094 38.931 33.5307L39 22.0915C39 21.5282 38.5586 21.0832 38 21.0832ZM38 35.4082C39.4897 35.4082 40.7931 36.7225 40.7931 38.2246C40.7931 39.7266 39.4897 41.0409 38 41.0409C36.5103 41.0409 35.2069 39.7266 35.2069 38.2246C35.2069 36.7225 36.5103 35.4082 38 35.4082ZM38 11C23.1034 11 11 23.2041 11 38.2246C11 53.245 23.1034 65.4492 38 65.4492C52.8966 65.4492 65 53.245 65 38.2246C65 23.2041 52.8966 11 38 11ZM38 12.8776C51.9655 12.8776 63.1379 24.1429 63.1379 38.2246C63.1379 52.3063 51.9655 63.5716 38 63.5716C24.0345 63.5716 12.8621 52.3063 12.8621 38.2246C12.8621 24.1429 24.0345 12.8776 38 12.8776Z" fill="#0D2DFF"/>
</svg>
