<svg width="76" height="76" viewBox="0 0 76 76" fill="none" xmlns="http://www.w3.org/2000/svg">
<g clip-path="url(#clip0_850_19473)">
<path d="M58.1963 26.5942H53.6879V21.791C53.6879 19.0386 52.6523 16.4165 50.7719 14.4082C50.4223 14.0347 49.8362 14.0156 49.463 14.3652C49.0896 14.7148 49.0704 15.3008 49.42 15.674C50.9779 17.3379 51.8359 19.5104 51.8359 21.791V26.5942H32.9923C27.0351 26.5942 22.1885 31.4409 22.1885 37.3981V40.711H20.7381C20.1611 40.711 19.6185 40.9357 19.2102 41.3438L14.2953 46.2588V41.3145C14.2953 40.5571 13.8898 39.8453 13.2367 39.4571C10.5322 37.849 8.85201 34.8994 8.85201 31.7594V21.791C8.85201 16.855 12.8677 12.8393 17.8037 12.8393H42.8842C44.0411 12.8393 45.1664 13.0564 46.2289 13.4849C46.7032 13.6758 47.2428 13.4465 47.4341 12.9723C47.6253 12.4979 47.3958 11.9584 46.9215 11.7671C45.638 11.2496 44.2796 10.9873 42.8842 10.9873H17.8037C11.8465 10.9873 7 15.8338 7 21.791V31.7594C7 35.5494 9.02711 39.1089 12.2902 41.049C12.3847 41.1051 12.4433 41.2069 12.4433 41.3146V46.706C12.4433 47.3825 12.8471 47.9869 13.4722 48.2459C13.8894 48.4464 14.7412 48.4175 15.2887 47.8847L20.5198 42.6536C20.5781 42.5952 20.6556 42.5631 20.7381 42.5631H22.1885V47.3663C22.1885 48.8245 22.4743 50.2395 23.0379 51.572C23.2371 52.0429 23.7804 52.263 24.2515 52.0641C24.7226 51.8649 24.9428 51.3216 24.7437 50.8505C24.2773 49.7476 24.0407 48.5754 24.0407 47.3664V37.3982C24.0407 32.4621 28.0564 28.4464 32.9924 28.4464H58.1963C63.1323 28.4464 67.148 32.4621 67.148 37.3982V47.3664C67.148 50.5187 65.5361 53.3799 62.8361 55.0203C62.1997 55.4069 61.8044 56.1125 61.8044 56.8616V62.9013L55.8541 56.9509C55.446 56.5428 54.9034 56.318 54.3262 56.318H32.9923C30.7459 56.318 28.5978 55.4825 26.9435 53.9654C26.5667 53.6199 25.981 53.6451 25.6351 54.022C25.2894 54.3989 25.3147 54.9847 25.6917 55.3304C27.6884 57.1617 30.281 58.1702 32.9922 58.1702H54.326C54.4072 58.1702 54.4868 58.2031 54.5442 58.2606L60.8107 64.5271C61.2946 64.899 61.7676 65.1864 62.6271 64.8883C63.2522 64.6293 63.656 64.0249 63.656 63.3484V56.8615C63.656 56.7551 63.7103 56.6559 63.7974 56.603C67.0552 54.6239 69 51.1711 69 47.3663V37.3981C69 31.4409 64.1535 26.5942 58.1963 26.5942Z" fill="#0D2DFF"/>
<path d="M42.9808 48.6786C42.4378 47.9114 41.4486 47.3969 40.3204 47.3969C38.6097 47.3969 37.2181 48.5794 37.2181 50.0329C37.2181 51.4863 38.6098 52.6688 40.3204 52.6688C41.8214 52.6688 43.0766 51.7583 43.3618 50.5531C44.7277 49.9778 45.803 48.8314 46.2697 47.3811C47.6221 47.0731 48.6348 45.8617 48.6348 44.4173V41.0782C48.6348 39.6838 47.691 38.5065 46.4088 38.1495C46.1071 36.2896 45.1931 34.5831 43.7919 33.2933C42.2284 31.8541 40.1965 31.0615 38.0703 31.0615C33.8864 31.0615 30.3869 34.0752 29.731 38.1496C28.4493 38.5069 27.5059 39.684 27.5059 41.078V44.4172C27.5059 46.0936 28.8697 47.4575 30.5462 47.4575C32.2226 47.4575 33.5865 46.0936 33.5865 44.4172V41.078C33.5865 39.7708 32.7571 38.6537 31.597 38.2251C32.1974 35.1572 34.8793 32.9135 38.0703 32.9135C41.2209 32.9135 43.9366 35.1964 44.5412 38.226C43.3823 38.6553 42.5542 39.7717 42.5542 41.078V44.4172C42.5542 45.6528 43.2955 46.718 44.3565 47.193C44.0622 47.8256 43.5779 48.3423 42.9808 48.6786ZM40.3204 50.8169C39.5835 50.8169 39.0701 50.4038 39.0701 50.033C39.0701 49.6623 39.5835 49.2491 40.3204 49.2491C41.0572 49.2491 41.5708 49.6623 41.5708 50.033C41.5708 50.4038 41.0571 50.8169 40.3204 50.8169ZM31.7345 44.4174C31.7345 45.0727 31.2014 45.6057 30.5462 45.6057C29.8909 45.6057 29.3579 45.0727 29.3579 44.4174V41.0783C29.3579 40.423 29.8909 39.89 30.5462 39.89C31.2014 39.89 31.7345 40.423 31.7345 41.0783V44.4174ZM44.4062 41.0783C44.4062 40.423 44.9392 39.89 45.5945 39.89C46.2497 39.89 46.7828 40.423 46.7828 41.0783V44.4174C46.7828 45.0727 46.2497 45.6057 45.5945 45.6057C44.9392 45.6057 44.4062 45.0727 44.4062 44.4174V41.0783Z" fill="#0D2DFF"/>
<path d="M51.0412 36.3095H58.4172C58.9286 36.3095 59.3432 35.895 59.3432 35.3835C59.3432 34.872 58.9286 34.4575 58.4172 34.4575H51.0412C50.5299 34.4575 50.1152 34.872 50.1152 35.3835C50.1152 35.895 50.5299 36.3095 51.0412 36.3095Z" fill="#0D2DFF"/>
<path d="M51.0412 40.455H56.7287C57.24 40.455 57.6547 40.0405 57.6547 39.529C57.6547 39.0175 57.24 38.603 56.7287 38.603H51.0412C50.5299 38.603 50.1152 39.0175 50.1152 39.529C50.1152 40.0405 50.5299 40.455 51.0412 40.455Z" fill="#0D2DFF"/>
<path d="M16.1101 24.4799C16.8726 24.4799 17.4907 23.8618 17.4907 23.0993C17.4907 22.3369 16.8726 21.7188 16.1101 21.7188C15.3476 21.7188 14.7295 22.3369 14.7295 23.0993C14.7295 23.8618 15.3476 24.4799 16.1101 24.4799Z" fill="#0D2DFF"/>
<path d="M20.2917 24.4799C21.0542 24.4799 21.6723 23.8618 21.6723 23.0993C21.6723 22.3369 21.0542 21.7188 20.2917 21.7188C19.5292 21.7188 18.9111 22.3369 18.9111 23.0993C18.9111 23.8618 19.5292 24.4799 20.2917 24.4799Z" fill="#0D2DFF"/>
<path d="M24.448 24.4799C25.2105 24.4799 25.8286 23.8618 25.8286 23.0993C25.8286 22.3369 25.2105 21.7188 24.448 21.7188C23.6855 21.7188 23.0674 22.3369 23.0674 23.0993C23.0674 23.8618 23.6855 24.4799 24.448 24.4799Z" fill="#0D2DFF"/>
</g>
<defs>
<clipPath id="clip0_850_19473">
<rect width="62" height="62" fill="white" transform="translate(7 7)"/>
</clipPath>
</defs>
</svg>
