<svg width="48" height="64" viewBox="0 0 48 64" fill="none" xmlns="http://www.w3.org/2000/svg">
<path d="M24 0C17.6374 0.00844015 11.5378 2.53971 7.03876 7.03876C2.53971 11.5378 0.00844015 17.6374 0 24C0 41.23 22.36 62.81 23.31 63.72C23.4948 63.8996 23.7423 64.0001 24 64.0001C24.2577 64.0001 24.5052 63.8996 24.69 63.72C25.64 62.81 48 41.23 48 24C47.9916 17.6374 45.4603 11.5378 40.9612 7.03876C36.4622 2.53971 30.3626 0.00844015 24 0V0ZM24 35C21.8244 35 19.6977 34.3549 17.8887 33.1462C16.0798 31.9375 14.6699 30.2195 13.8373 28.2095C13.0048 26.1995 12.7869 23.9878 13.2114 21.854C13.6358 19.7202 14.6834 17.7602 16.2218 16.2218C17.7602 14.6834 19.7202 13.6358 21.854 13.2114C23.9878 12.7869 26.1995 13.0048 28.2095 13.8373C30.2195 14.6699 31.9375 16.0798 33.1462 17.8887C34.3549 19.6977 35 21.8244 35 24C34.9983 26.9168 33.8388 29.7137 31.7762 31.7762C29.7137 33.8388 26.9168 34.9983 24 35Z" fill="#FE7235"/>
<circle cx="24" cy="24" r="14.5" stroke="white"/>
<path d="M28.0176 27.5811C28.0176 28.7119 27.6074 29.5938 26.7871 30.2266C25.9668 30.8594 24.8535 31.1758 23.4473 31.1758C21.9238 31.1758 20.752 30.9795 19.9316 30.5869V29.1455C20.459 29.3682 21.0332 29.5439 21.6543 29.6729C22.2754 29.8018 22.8906 29.8662 23.5 29.8662C24.4961 29.8662 25.2461 29.6787 25.75 29.3037C26.2539 28.9229 26.5059 28.3955 26.5059 27.7217C26.5059 27.2764 26.415 26.9131 26.2334 26.6318C26.0576 26.3447 25.7588 26.0811 25.3369 25.8408C24.9209 25.6006 24.2852 25.3281 23.4297 25.0234C22.2344 24.5957 21.3789 24.0889 20.8633 23.5029C20.3535 22.917 20.0986 22.1523 20.0986 21.209C20.0986 20.2188 20.4707 19.4307 21.2148 18.8447C21.959 18.2588 22.9434 17.9658 24.168 17.9658C25.4453 17.9658 26.6201 18.2002 27.6924 18.6689L27.2266 19.9697C26.166 19.5244 25.1348 19.3018 24.1328 19.3018C23.3418 19.3018 22.7236 19.4717 22.2783 19.8115C21.833 20.1514 21.6104 20.623 21.6104 21.2266C21.6104 21.6719 21.6924 22.0381 21.8564 22.3252C22.0205 22.6064 22.2959 22.8672 22.6826 23.1074C23.0752 23.3418 23.6729 23.6025 24.4756 23.8896C25.8232 24.3701 26.749 24.8857 27.2529 25.4365C27.7627 25.9873 28.0176 26.7021 28.0176 27.5811Z" fill="#FE7235"/>
</svg>
